<svg width="18" height="18" viewBox="0 0 18 18" fill="none" xmlns="http://www.w3.org/2000/svg">
<path d="M7.20037 3.68938C4.71032 3.68938 2.88735 5.39878 2.88735 7.28357C2.88735 7.91614 3.0836 8.51349 3.43726 9.03753C3.49769 9.12694 3.53721 9.22881 3.55288 9.33558C3.56856 9.44235 3.56 9.55128 3.52784 9.65429L3.20077 10.7031L4.8505 10.4385C4.98419 10.417 5.12124 10.4337 5.24586 10.4867C5.86441 10.7472 6.52919 10.8802 7.20037 10.8777C9.69042 10.8777 11.5134 9.16836 11.5134 7.28357C11.5134 5.39878 9.69042 3.68938 7.20037 3.68938ZM1.44968 7.28357C1.44968 4.40462 4.13238 2.25171 7.20037 2.25171C10.2684 2.25171 12.9511 4.40462 12.9511 7.28357C12.9511 10.1625 10.2684 12.3154 7.20037 12.3154C6.40732 12.3174 5.6207 12.1732 4.87997 11.8899L2.28209 12.3068C2.16118 12.3262 2.0373 12.3144 1.92222 12.2726C1.80714 12.2307 1.70466 12.1601 1.62452 12.0675C1.54437 11.9749 1.48922 11.8633 1.46428 11.7434C1.43934 11.6235 1.44545 11.4992 1.48203 11.3824L2.0571 9.53999C1.66025 8.85413 1.45077 8.07596 1.44968 7.28357V7.28357Z" fill="#849AA9"/>
<path d="M11.5671 5.98978C11.5314 6.07724 11.5133 6.17087 11.5138 6.26532C11.5143 6.35977 11.5335 6.4532 11.5701 6.54025C11.6068 6.6273 11.6602 6.70628 11.7274 6.77267C11.7946 6.83905 11.8742 6.89155 11.9617 6.92715C13.4497 7.53313 14.3892 8.78965 14.3892 10.159C14.3892 10.7916 14.193 11.389 13.8393 11.913C13.7789 12.0024 13.7394 12.1043 13.7237 12.211C13.708 12.3178 13.7166 12.4268 13.7487 12.5298L14.0758 13.5785L12.4261 13.314C12.2924 13.2925 12.1553 13.3092 12.0307 13.3622C11.4122 13.6227 10.7474 13.7557 10.0762 13.7532C8.13247 13.7532 6.55894 12.6901 5.99537 11.3228C5.92273 11.1465 5.78302 11.0062 5.60696 10.9329C5.4309 10.8595 5.23292 10.8591 5.05657 10.9318C4.88022 11.0044 4.73995 11.1441 4.66661 11.3202C4.59328 11.4963 4.59289 11.6942 4.66552 11.8706C5.48428 13.8539 7.63935 15.1909 10.0762 15.1909C10.8693 15.1929 11.6559 15.0487 12.3966 14.7653L14.9945 15.1823C15.1154 15.2017 15.2393 15.1899 15.3544 15.148C15.4694 15.1061 15.5719 15.0356 15.6521 14.943C15.7322 14.8503 15.7874 14.7388 15.8123 14.6189C15.8372 14.499 15.8311 14.3747 15.7946 14.2578L15.2195 12.4155C15.6163 11.7296 15.8258 10.9514 15.8269 10.159C15.8269 8.08735 14.4158 6.37364 12.5037 5.59514C12.4163 5.55959 12.3227 5.54162 12.2282 5.54225C12.1338 5.54288 12.0405 5.5621 11.9535 5.59882C11.8665 5.63553 11.7876 5.68902 11.7213 5.75622C11.655 5.82343 11.6026 5.90304 11.5671 5.9905V5.98978Z" fill="#849AA9"/>
</svg>
