<svg width="17" height="14" viewBox="0 0 17 14" fill="none" xmlns="http://www.w3.org/2000/svg">
<path d="M6.38528 1.68938C5.6227 1.68938 4.89134 1.99232 4.35211 2.53155C3.81288 3.07078 3.50994 3.80214 3.50994 4.56473C3.50994 5.32732 3.81288 6.05867 4.35211 6.59791C4.89134 7.13714 5.6227 7.44007 6.38528 7.44007C7.14787 7.44007 7.87923 7.13714 8.41846 6.59791C8.95769 6.05867 9.26063 5.32732 9.26063 4.56473C9.26063 3.80214 8.95769 3.07078 8.41846 2.53155C7.87923 1.99232 7.14787 1.68938 6.38528 1.68938ZM2.07227 4.56473C2.07227 3.42084 2.52667 2.32381 3.33552 1.51496C4.14437 0.706115 5.2414 0.251709 6.38528 0.251709C7.52917 0.251709 8.6262 0.706115 9.43505 1.51496C10.2439 2.32381 10.6983 3.42084 10.6983 4.56473C10.6983 5.70861 10.2439 6.80565 9.43505 7.61449C8.6262 8.42334 7.52917 8.87775 6.38528 8.87775C5.2414 8.87775 4.14437 8.42334 3.33552 7.61449C2.52667 6.80565 2.07227 5.70861 2.07227 4.56473V4.56473Z" fill="#849AA9"/>
<path d="M2.16157 11.7531H10.6093C10.2161 10.1738 8.55347 8.87777 6.38546 8.87777C4.21745 8.87777 2.55478 10.1738 2.16157 11.7531V11.7531ZM0.634766 12.4719C0.634766 9.59301 3.31746 7.44009 6.38546 7.44009C9.45345 7.44009 12.1362 9.59301 12.1362 12.4719C12.1362 12.6626 12.0604 12.8454 11.9256 12.9802C11.7908 13.1151 11.608 13.1908 11.4173 13.1908H1.3536C1.16295 13.1908 0.980116 13.1151 0.845308 12.9802C0.7105 12.8454 0.634766 12.6626 0.634766 12.4719ZM11.418 7.34952C11.3326 7.50377 11.24 7.65393 11.1406 7.79951C11.5884 8.19487 11.9866 8.64486 12.3245 9.13942C13.6694 9.59588 14.6348 10.5987 14.9224 11.7531H13.4301C13.5242 12.2175 13.5738 12.6984 13.5738 13.1908H15.7303C15.921 13.1908 16.1038 13.1151 16.2386 12.9802C16.3734 12.8454 16.4492 12.6626 16.4492 12.4719C16.4492 10.465 15.1452 8.81091 13.3165 7.99288C14.0663 7.42055 14.6078 6.61819 14.858 5.70872C15.1083 4.79925 15.0535 3.83282 14.702 2.95747C14.3505 2.08212 13.7218 1.34612 12.9121 0.86223C12.1024 0.378337 11.1564 0.173228 10.219 0.278324C10.6995 0.708675 11.1046 1.21649 11.4173 1.78069C12.0339 1.94083 12.5799 2.30113 12.9697 2.80505C13.3595 3.30898 13.571 3.92803 13.571 4.56511C13.571 5.20218 13.3595 5.82123 12.9697 6.32516C12.5799 6.82909 12.0339 7.18938 11.4173 7.34952H11.418Z" fill="#849AA9"/>
</svg>
