<svg width="18" height="18" viewBox="0 0 18 18" fill="none" xmlns="http://www.w3.org/2000/svg">
<path d="M4.56667 15.9097C3.99472 15.9097 3.44621 15.6825 3.04178 15.2781C2.63736 14.8736 2.41016 14.3251 2.41016 13.7532V3.68947C2.41016 3.11753 2.63736 2.56901 3.04178 2.16459C3.44621 1.76016 3.99472 1.53296 4.56667 1.53296H10.441C11.0126 1.53327 11.5608 1.76054 11.9649 2.16482L14.7181 4.91652C15.1223 5.32097 15.3493 5.86938 15.3492 6.44117V13.7532C15.3492 14.3251 15.122 14.8736 14.7176 15.2781C14.3132 15.6825 13.7646 15.9097 13.1927 15.9097H4.56667ZM3.84783 13.7532C3.84783 13.9438 3.92356 14.1267 4.05837 14.2615C4.19318 14.3963 4.37602 14.472 4.56667 14.472H13.1927C13.3834 14.472 13.5662 14.3963 13.701 14.2615C13.8358 14.1267 13.9115 13.9438 13.9115 13.7532V7.28365H11.755C11.1831 7.28365 10.6346 7.05645 10.2301 6.65202C9.82572 6.2476 9.59852 5.69908 9.59852 5.12714V2.97063H4.56667C4.37602 2.97063 4.19318 3.04637 4.05837 3.18117C3.92356 3.31598 3.84783 3.49882 3.84783 3.68947V13.7532ZM11.755 5.84598H13.6139L11.0362 3.26823V5.12714C11.0362 5.31779 11.1119 5.50063 11.2467 5.63544C11.3815 5.77024 11.5644 5.84598 11.755 5.84598ZM6.00434 8.72132C5.81369 8.72132 5.63085 8.79706 5.49604 8.93187C5.36124 9.06667 5.2855 9.24951 5.2855 9.44016C5.2855 9.63081 5.36124 9.81365 5.49604 9.94846C5.63085 10.0833 5.81369 10.159 6.00434 10.159H11.755C11.9457 10.159 12.1285 10.0833 12.2633 9.94846C12.3981 9.81365 12.4739 9.63081 12.4739 9.44016C12.4739 9.24951 12.3981 9.06667 12.2633 8.93187C12.1285 8.79706 11.9457 8.72132 11.755 8.72132H6.00434ZM6.00434 11.5967C5.81369 11.5967 5.63085 11.6724 5.49604 11.8072C5.36124 11.942 5.2855 12.1249 5.2855 12.3155C5.2855 12.5062 5.36124 12.689 5.49604 12.8238C5.63085 12.9586 5.81369 13.0343 6.00434 13.0343H8.87969C9.07033 13.0343 9.25317 12.9586 9.38798 12.8238C9.52279 12.689 9.59852 12.5062 9.59852 12.3155C9.59852 12.1249 9.52279 11.942 9.38798 11.8072C9.25317 11.6724 9.07033 11.5967 8.87969 11.5967H6.00434Z" fill="#849AA9"/>
</svg>
