<svg width="16" height="15" viewBox="0 0 16 15" fill="none" xmlns="http://www.w3.org/2000/svg">
<path d="M0.965226 14.6616C0.872016 14.5543 0.812707 14.4218 0.794795 14.2808C0.776882 14.1398 0.80117 13.9967 0.864589 13.8695L7.33412 0.930414C7.39374 0.810795 7.48552 0.710165 7.59917 0.639827C7.71282 0.569488 7.84382 0.532227 7.97748 0.532227C8.11113 0.532227 8.24214 0.569488 8.35578 0.639827C8.46943 0.710165 8.56122 0.810795 8.62083 0.930414L15.0904 13.8695C15.154 13.9967 15.1785 14.1399 15.1607 14.281C15.1429 14.4221 15.0837 14.5547 14.9905 14.6622C14.8973 14.7696 14.7743 14.847 14.6372 14.8845C14.5 14.922 14.3548 14.918 14.2199 14.873L7.97748 12.7919L1.7351 14.873C1.60025 14.9178 1.45515 14.9216 1.31813 14.884C1.1811 14.8464 1.05829 14.769 0.965226 14.6616V14.6616ZM8.69631 11.5167L13.028 12.9609L7.97748 2.85905L2.92693 12.9601L7.25864 11.516V7.72126C7.25864 7.53062 7.33437 7.34778 7.46918 7.21297C7.60399 7.07816 7.78683 7.00243 7.97748 7.00243C8.16812 7.00243 8.35096 7.07816 8.48577 7.21297C8.62058 7.34778 8.69631 7.53062 8.69631 7.72126V11.5167Z" fill="#849AA9"/>
</svg>
