<svg width="18" height="18" viewBox="0 0 18 18" fill="none" xmlns="http://www.w3.org/2000/svg">
<path d="M9.92423 2.72623C10.167 2.48348 10.4806 2.32412 10.8198 2.27113C11.159 2.21814 11.5063 2.27426 11.8115 2.4314C12.1167 2.58853 12.3642 2.83857 12.5181 3.14543C12.6721 3.45229 12.7246 3.80012 12.668 4.13875L12.2633 6.56698C13.1936 6.60049 14.0746 6.99361 14.7208 7.66359C15.3671 8.33357 15.7282 9.22814 15.7281 10.159V11.5967C15.7281 12.5499 15.3494 13.4641 14.6754 14.1381C14.0014 14.8122 13.0872 15.1909 12.1339 15.1909H4.94557C4.37363 15.1909 3.82511 14.9637 3.42069 14.5592C3.01627 14.1548 2.78906 13.6063 2.78906 13.0343V8.72133C2.78906 8.14939 3.01627 7.60087 3.42069 7.19645C3.82511 6.79202 4.37363 6.56482 4.94557 6.56482H6.08565L9.92423 2.72623ZM5.66441 8.00249H4.94557C4.75492 8.00249 4.57209 8.07823 4.43728 8.21304C4.30247 8.34784 4.22674 8.53068 4.22674 8.72133V13.0343C4.22674 13.225 4.30247 13.4078 4.43728 13.5426C4.57209 13.6775 4.75492 13.7532 4.94557 13.7532H5.66441V8.00249ZM7.10208 13.7532H12.1339C12.7059 13.7532 13.2544 13.526 13.6588 13.1216C14.0632 12.7171 14.2904 12.1686 14.2904 11.5967V10.159C14.2904 9.58706 14.0632 9.03854 13.6588 8.63412C13.2544 8.2297 12.7059 8.00249 12.1339 8.00249H9.97743C9.78678 8.00249 9.60394 7.92676 9.46913 7.79195C9.33433 7.65714 9.25859 7.4743 9.25859 7.28366C9.25859 7.09301 9.33433 6.91017 9.46913 6.77536C9.60394 6.64055 9.78678 6.56482 9.97743 6.56482H10.8062L11.2498 3.90225C11.2562 3.86408 11.2504 3.82484 11.2331 3.7902C11.2158 3.75557 11.1879 3.72733 11.1535 3.70957C11.1191 3.69181 11.0799 3.68545 11.0417 3.6914C11.0034 3.69734 10.9681 3.7153 10.9407 3.74267L7.10208 7.58125V13.7532Z" fill="#849AA9"/>
</svg>
