<svg width="18" height="18" viewBox="0 0 20 20" fill="none" xmlns="http://www.w3.org/2000/svg">
<path d="M14.1444 0H5.85556L0 5.85556V14.1444L5.85556 20H14.1444L20 14.1444V5.85556L14.1444 0ZM17.7778 13.2222L13.2222 17.7778H6.77778L2.22222 13.2222V6.77778L6.77778 2.22222H13.2222L17.7778 6.77778V13.2222Z" fill="#62646A"/>
<path d="M10 15.5556C10.6137 15.5556 11.1111 15.0581 11.1111 14.4444C11.1111 13.8308 10.6137 13.3333 10 13.3333C9.38635 13.3333 8.88889 13.8308 8.88889 14.4444C8.88889 15.0581 9.38635 15.5556 10 15.5556Z" fill="#62646A"/>
<path d="M8.88889 4.44444H11.1111V12.2222H8.88889V4.44444Z" fill="#62646A"/>
</svg>
