<svg width="21" height="20" viewBox="0 0 21 20" fill="none" xmlns="http://www.w3.org/2000/svg">
<path d="M14.3216 18.4807V3.25589C14.3216 2.75115 14.1211 2.26709 13.7642 1.91019C13.4073 1.55329 12.9233 1.35278 12.4185 1.35278H8.61233C8.1076 1.35278 7.62354 1.55329 7.26663 1.91019C6.90973 2.26709 6.70923 2.75115 6.70923 3.25589V18.4807M2.9031 5.14575H18.1279C19.179 5.14575 20.031 5.9978 20.031 7.04885V16.5644C20.031 17.6154 19.179 18.4675 18.1279 18.4675H2.9031C1.85205 18.4675 1 17.6154 1 16.5644V7.04885C1 5.9978 1.85205 5.14575 2.9031 5.14575Z" stroke="black" stroke-width="1.89494" stroke-linecap="round" stroke-linejoin="round"/>
</svg>
