<svg width="39" height="43" viewBox="0 0 39 43" fill="none" xmlns="http://www.w3.org/2000/svg">
<path fill-rule="evenodd" clip-rule="evenodd" d="M29.0842 21.2835H34.495V20.2616C34.1856 19.1437 33.6929 18.3859 33.0548 17.925C32.4167 17.4649 31.5895 17.2681 30.6185 17.2747L8.42714 17.2796C7.88068 17.2796 7.43847 16.8474 7.43847 16.3151C7.43847 15.782 7.88068 15.3506 8.42714 15.3506L30.5924 15.3531C31.9871 15.34 33.2179 15.65 34.2285 16.3807C34.3193 16.4463 34.4084 16.5152 34.495 16.5874V16.0075C34.495 15.107 34.1141 14.2836 33.5013 13.6857C32.8934 13.0879 32.051 12.718 31.1229 12.718H30.4091L30.3175 12.7139L29.9686 13.99H27.5709L28.9934 8.7846C27.7979 8.47295 27.085 7.26735 27.4053 6.10112L19.4934 4.03356C19.1731 5.19897 17.9381 5.89608 16.7443 5.58361L14.4214 13.99H11.9489L15.711 0.352783L32.5 4.74133L30.8446 10.7882H31.1229C32.5899 10.7882 33.9275 11.3779 34.8977 12.3235C35.8695 13.2675 36.4723 14.5748 36.4723 16.0075V21.3376C37.0432 21.4483 37.5535 21.7239 37.9494 22.1102C38.4715 22.6195 38.7969 23.3248 38.7969 24.1015V30.4452C38.7969 31.2547 38.4572 31.9912 37.9124 32.5218C37.5232 32.9015 37.0272 33.1796 36.4723 33.3067V37.1334C36.4723 38.5654 35.8687 39.8719 34.8985 40.8183L34.8363 40.8741C33.8695 41.7869 32.5571 42.3528 31.1229 42.3528H6.1463C4.67758 42.3528 3.33834 41.7647 2.36816 40.8191C1.39966 39.8743 0.796875 38.5695 0.796875 37.1334V16.0075C0.796875 14.5707 1.39882 13.2658 2.36732 12.321C3.33581 11.3762 4.67422 10.7882 6.1463 10.7882H9.26701L9.28046 10.789L11.7648 1.78802L14.1347 2.40722L10.8786 13.99H8.39687L8.74829 12.718H6.1463C5.22068 12.718 4.37745 13.0887 3.76541 13.6849C3.15422 14.2812 2.77422 15.1046 2.77422 16.0075V37.1334C2.77422 38.0364 3.15506 38.8582 3.7671 39.4544C4.37913 40.0523 5.2232 40.4238 6.1463 40.4238H31.1229C32.025 40.4238 32.8497 40.0712 33.455 39.5012L33.5004 39.4536C34.1133 38.8565 34.495 38.0331 34.495 37.1334V33.3846H29.0842C27.4128 33.3846 25.8928 32.717 24.7949 31.6459L24.6915 31.5352C23.6524 30.469 23.0117 29.0321 23.0117 27.4607V27.2065C23.0117 25.5835 23.6952 24.1039 24.7949 23.0287L24.8058 23.0181C25.9071 21.9478 27.4221 21.2835 29.0842 21.2835ZM21.0378 13.6513C22.4829 14.0286 23.971 13.192 24.3577 11.7814C24.7453 10.3716 23.8861 8.91993 22.4409 8.54266C20.9949 8.1654 19.5068 9.00194 19.1201 10.4126C18.7334 11.8224 19.5926 13.2732 21.0378 13.6513ZM31.2557 25.7007L31.2608 25.7048C32.1797 26.6037 32.1771 28.066 31.2591 28.9641L31.2549 28.969C30.3335 29.8654 28.8345 29.8629 27.9131 28.9673L27.9089 28.9632C26.99 28.0644 26.9925 26.6021 27.9105 25.7032L27.9148 25.6991C28.8362 24.8027 30.3351 24.8043 31.2557 25.7007Z" fill="#323232"/>
</svg>
