<svg width="25" height="25" viewBox="0 0 39 42" fill="none" xmlns="http://www.w3.org/2000/svg">
<g clip-path="url(#clip0_4038_1177)">
<path fill-rule="evenodd" clip-rule="evenodd" d="M28.6165 20.9307H34.0273V19.9088C33.7179 18.791 33.2253 18.0332 32.5872 17.5722C31.9491 17.1121 31.1218 16.9153 30.1508 16.9219L7.95949 16.9268C7.41303 16.9268 6.97082 16.4946 6.97082 15.9623C6.97082 15.4292 7.41303 14.9978 7.95949 14.9978L30.1248 15.0003C31.5195 14.9872 32.7503 15.2972 33.7608 16.0279C33.8516 16.0935 33.9407 16.1624 34.0273 16.2346V15.6548C34.0273 14.7543 33.6465 13.9308 33.0336 13.333C32.4258 12.7351 31.5834 12.3652 30.6552 12.3652H29.9415L29.8498 12.3611L29.5009 13.6372H27.1033L28.5257 8.43182C27.3302 8.12017 26.6173 6.91457 26.9376 5.74833L19.0257 3.68077C18.7054 4.84619 17.4704 5.5433 16.2766 5.23083L13.9537 13.6372H11.4812L15.2434 0L32.0323 4.38855L30.377 10.4354H30.6552C32.1223 10.4354 33.4598 11.0251 34.43 11.9707C35.4019 12.9147 36.0047 14.222 36.0047 15.6548V20.9848C36.5755 21.0955 37.0858 21.3711 37.4818 21.7574C38.0039 22.2667 38.3292 22.972 38.3292 23.7487V30.0924C38.3292 30.9019 37.9896 31.6384 37.4448 32.169C37.0555 32.5487 36.5595 32.8268 36.0047 32.9539V36.7807C36.0047 38.2126 35.401 39.5191 34.4309 40.4655L34.3686 40.5213C33.4018 41.4341 32.0895 42 30.6552 42H5.67865C4.20993 42 2.87068 41.412 1.90051 40.4663C0.932011 39.5215 0.329224 38.2167 0.329224 36.7807V15.6548C0.329224 14.2179 0.931171 12.913 1.89967 11.9682C2.86816 11.0235 4.20657 10.4354 5.67865 10.4354H8.79936L8.81281 10.4362L11.2971 1.43524L13.6671 2.05444L10.411 13.6372H7.92922L8.28064 12.3652H5.67865C4.75303 12.3652 3.9098 12.7359 3.29776 13.3321C2.68657 13.9284 2.30657 14.7518 2.30657 15.6548V36.7807C2.30657 37.6836 2.68741 38.5054 3.29944 39.1016C3.91148 39.6995 4.75555 40.071 5.67865 40.071H30.6552C31.5573 40.071 32.3821 39.7184 32.9874 39.1484L33.0328 39.1008C33.6456 38.5038 34.0273 37.6803 34.0273 36.7807V33.0318H28.6165C26.9452 33.0318 25.4252 32.3642 24.3272 31.2931L24.2238 31.1824C23.1847 30.1162 22.5441 28.6793 22.5441 27.108V26.8537C22.5441 25.2307 23.2276 23.7511 24.3272 22.6759L24.3382 22.6653C25.4395 21.595 26.9544 20.9307 28.6165 20.9307ZM20.5701 13.2985C22.0153 13.6758 23.5033 12.8392 23.8901 11.4286C24.2776 10.0188 23.4184 8.56714 21.9733 8.18988C20.5272 7.81262 19.0392 8.64916 18.6525 10.0598C18.2657 11.4696 19.1249 12.9204 20.5701 13.2985ZM30.7881 25.348L30.7931 25.3521C31.712 26.2509 31.7095 27.7132 30.7914 28.6113L30.7872 28.6162C29.8658 29.5126 28.3668 29.5101 27.4454 28.6146L27.4412 28.6105C26.5223 27.7116 26.5248 26.2493 27.4429 25.3504L27.4471 25.3463C28.3685 24.4499 29.8675 24.4515 30.7881 25.348Z" fill="#fff" />
</g>
<defs>
<clipPath id="clip0_4038_1177">
<rect class="vvsv_she" width="38" height="42" fill="#fff" transform="translate(0.329224)"/>
</clipPath>
</defs>
</svg>
